<svg width="42" height="50" viewBox="0 0 42 50" fill="none" xmlns="http://www.w3.org/2000/svg">
<path d="M30.7217 46.5811H6.93848C5.18634 46.5811 3.50597 45.8851 2.26702 44.6461C1.02807 43.4072 0.332031 41.7268 0.332031 39.9747V6.94241C0.332031 5.19027 1.02807 3.5099 2.26702 2.27095C3.50597 1.032 5.18634 0.335961 6.93848 0.335961H23.481C24.5294 0.333386 25.5678 0.53876 26.5362 0.940195C27.5047 1.34163 28.3839 1.93115 29.1229 2.67465L34.9895 8.54117C35.7361 9.28338 36.3275 10.1669 36.729 11.1401C37.1306 12.1133 37.3342 13.1567 37.3282 14.2095V39.9747C37.3282 41.7268 36.6321 43.4072 35.3932 44.6461C34.1542 45.8851 32.4738 46.5811 30.7217 46.5811Z" fill="#E1EAF6"/>
<path d="M30.7217 49.2217H6.93848C5.18634 49.2217 3.50597 48.5257 2.26702 47.2868C1.02807 46.0478 0.332031 44.3674 0.332031 42.6153V9.58304C0.332031 7.8309 1.02807 6.15052 2.26702 4.91157C3.50597 3.67262 5.18634 2.97659 6.93848 2.97659H23.481C24.5294 2.97401 25.5678 3.17938 26.5362 3.58082C27.5047 3.98225 28.3839 4.57178 29.1229 5.31527L34.9895 11.1818C35.7361 11.924 36.3275 12.8075 36.729 13.7807C37.1306 14.7539 37.3342 15.7974 37.3282 16.8501V42.6153C37.3282 44.3674 36.6321 46.0478 35.3932 47.2868C34.1542 48.5257 32.4738 49.2217 30.7217 49.2217Z" fill="url(#paint0_linear_2202_11458)"/>
<path d="M6.81827 37.8471C6.64395 37.6757 6.5079 37.4694 6.41908 37.2416C6.33026 37.0139 6.29069 36.7699 6.30297 36.5258C6.41058 35.8111 6.6615 35.1255 7.04068 34.5101C7.41986 33.8948 7.91947 33.3625 8.50952 32.9451C10.1205 31.5886 11.9591 30.5284 13.94 29.8136C14.552 27.8641 14.9074 25.8431 14.9971 23.8017C13.2646 22.274 11.8697 20.4021 10.9011 18.3052C10.5229 17.2936 10.3131 16.2268 10.28 15.1473C10.2569 14.4869 10.4169 13.8329 10.7425 13.2579C10.8935 12.9956 11.1084 12.7757 11.3671 12.6187C11.6258 12.4616 11.92 12.3724 12.2223 12.3594C13.8343 12.4651 14.9706 13.9449 15.8823 16.4289C16.4748 18.3992 16.7557 20.4499 16.7147 22.5069C16.7147 22.7051 16.7147 22.9033 16.7147 23.1147C18.595 24.7987 20.6554 26.2698 22.8587 27.5014C24.2989 27.1975 25.6995 26.92 26.9283 26.6425C27.8544 26.4178 28.8029 26.2981 29.7559 26.2858C30.6095 26.2489 31.4589 26.4261 32.2267 26.8011C32.5523 26.9525 32.8303 27.1902 33.0306 27.4883C33.2309 27.7864 33.3459 28.1336 33.363 28.4923C33.2176 30.2232 31.4471 31.1349 29.0424 31.1349C28.3275 31.1313 27.6149 31.056 26.9151 30.9103C25.4383 30.5609 24.0096 30.0329 22.6605 29.3379C20.2616 29.8001 17.8923 30.4046 15.5652 31.1481L15.3142 31.2406C14.8613 32.7207 14.0995 34.0879 13.0791 35.2518C12.0587 36.4157 10.8029 37.3498 9.39478 37.9924C8.97495 38.163 8.52664 38.2527 8.07349 38.2567C7.61183 38.2658 7.16366 38.1007 6.81827 37.7942V37.8471ZM8.13956 36.5258C8.37544 36.5189 8.60817 36.4697 8.82663 36.3804C10.7358 35.5527 12.2508 34.0187 13.0548 32.0994C11.8378 32.6587 10.704 33.3834 9.68547 34.2531C8.90067 34.8006 8.33077 35.6041 8.07349 36.5258H8.13956ZM27.2983 29.1398C27.8854 29.259 28.4828 29.321 29.082 29.3247C29.8224 29.3635 30.5601 29.2086 31.2225 28.8755C31.6585 28.6377 31.6849 28.4527 31.6717 28.4395C31.6207 28.3668 31.5527 28.3079 31.4735 28.2677C30.9592 28.039 30.3968 27.9393 29.8351 27.977C29.0116 27.9881 28.1919 28.09 27.3907 28.2809L25.5806 28.6773C26.1437 28.8825 26.7226 29.0416 27.3115 29.153L27.2983 29.1398ZM15.9748 29.1398C17.3754 28.7169 18.8949 28.3338 20.4276 27.9902C19.1083 27.1687 17.8458 26.2594 16.6487 25.2684C16.5228 26.5741 16.2975 27.8683 15.9748 29.1398ZM12.2223 14.0903C12.2223 14.0903 12.2223 14.0903 12.1431 14.1695C11.9887 14.4712 11.9201 14.8094 11.9449 15.1473C11.971 16.0516 12.1497 16.9451 12.4734 17.7899C13.0405 19.1751 13.8911 20.4263 14.9706 21.4631C14.9301 19.9658 14.6856 18.4811 14.2439 17.05C13.9813 16.195 13.5599 15.3971 13.0019 14.6981C12.8162 14.4321 12.5462 14.2365 12.2356 14.1431L12.2223 14.0903Z" fill="#EFF4F9"/>
<path d="M6.82014 36.5267C6.65413 36.363 6.52291 36.1674 6.43436 35.9517C6.34581 35.736 6.30176 35.5047 6.30484 35.2715C6.41245 34.5568 6.66337 33.8712 7.04255 33.2559C7.42173 32.6406 7.92135 32.1082 8.51139 31.6908C10.1224 30.3344 11.9609 29.2742 13.9419 28.5594C14.5539 26.6098 14.9092 24.5889 14.9989 22.5475C13.2591 21.0006 11.8636 19.1055 10.9029 16.9849C10.5248 15.9732 10.315 14.9065 10.2819 13.827C10.2588 13.1666 10.4188 12.5126 10.7444 11.9375C10.8954 11.6753 11.1103 11.4554 11.369 11.2983C11.6277 11.1413 11.9218 11.0521 12.2242 11.0391C13.8362 11.1448 14.9725 12.6246 15.8842 15.1086C16.4767 17.0789 16.7576 19.1296 16.7166 21.1866C16.7166 21.3848 16.7166 21.583 16.7166 21.7944C18.5968 23.4784 20.6573 24.9495 22.8606 26.181C24.3008 25.8771 25.7014 25.5997 26.9302 25.3222C27.8563 25.0974 28.8048 24.9778 29.7577 24.9655C30.6114 24.9286 31.4608 25.1058 32.2286 25.4808C32.5542 25.6322 32.8322 25.8698 33.0325 26.168C33.2328 26.4661 33.3477 26.8133 33.3649 27.172C33.2195 28.9029 31.449 29.8146 29.0442 29.8146C28.3294 29.8109 27.6168 29.7357 26.917 29.59C25.4402 29.2406 24.0115 28.7126 22.6624 28.0176C20.2635 28.4798 17.8942 29.0843 15.5671 29.8278L15.316 29.9203C14.8632 31.4004 14.1013 32.7676 13.0809 33.9315C12.0606 35.0953 10.8048 36.0295 9.39666 36.6721C8.97683 36.8427 8.52852 36.9324 8.07537 36.9363C7.6137 36.9455 7.16554 36.7804 6.82014 36.4739V36.5267ZM8.14143 35.2055C8.37732 35.1986 8.61004 35.1493 8.8285 35.0601C10.7377 34.2324 12.2527 32.6984 13.0566 30.7791C11.8397 31.3384 10.7058 32.0631 9.68734 32.9328C8.90254 33.4803 8.33265 34.2838 8.07537 35.2055H8.14143ZM27.3001 27.8194C27.8873 27.9387 28.4847 28.0007 29.0839 28.0044C29.8243 28.0431 30.562 27.8883 31.2244 27.5552C31.6604 27.3174 31.6868 27.1324 31.6736 27.1192C31.6226 27.0465 31.5546 26.9876 31.4754 26.9474C30.961 26.7187 30.3987 26.619 29.837 26.6567C29.0135 26.6678 28.1938 26.7697 27.3926 26.9606L25.5825 27.357C26.1456 27.5622 26.7245 27.7213 27.3134 27.8327L27.3001 27.8194ZM15.9767 27.8194C17.3773 27.3966 18.8967 27.0135 20.4294 26.6699C19.1102 25.8484 17.8477 24.9391 16.6505 23.9481C16.5247 25.2538 16.2994 26.548 15.9767 27.8194ZM12.2242 12.77C12.2242 12.77 12.2242 12.77 12.1449 12.8492C11.9906 13.1508 11.922 13.4891 11.9468 13.827C11.9729 14.7313 12.1515 15.6247 12.4753 16.4696C13.0423 17.8547 13.893 19.106 14.9725 20.1427C14.932 18.6455 14.6875 17.1608 14.2458 15.7296C13.9832 14.8746 13.5618 14.0768 13.0038 13.3777C12.8181 13.1117 12.5481 12.9162 12.2374 12.8228L12.2242 12.77Z" fill="#042365"/>
<path d="M34.687 14.21H27.8559C27.0395 14.21 26.2564 13.8856 25.679 13.3083C25.1017 12.7309 24.7773 11.9479 24.7773 11.1314V5.62158C24.7773 5.44637 24.8469 5.27833 24.9708 5.15444C25.0947 5.03054 25.2628 4.96094 25.438 4.96094C25.6132 4.96094 25.7812 5.03054 25.9051 5.15444C26.029 5.27833 26.0986 5.44637 26.0986 5.62158V11.1314C26.0986 11.5974 26.2838 12.0444 26.6133 12.374C26.9429 12.7035 27.3899 12.8887 27.8559 12.8887H34.687C34.8622 12.8887 35.0303 12.9583 35.1542 13.0822C35.2781 13.2061 35.3477 13.3741 35.3477 13.5493C35.3477 13.7245 35.2781 13.8926 35.1542 14.0165C35.0303 14.1404 34.8622 14.21 34.687 14.21Z" fill="#A7C1DB"/>
<path d="M38.7686 34.4766H20.1252C18.7314 34.4766 17.6016 35.6064 17.6016 37.0002V43.5406C17.6016 44.9344 18.7314 46.0643 20.1252 46.0643H38.7686C40.1624 46.0643 41.2923 44.9344 41.2923 43.5406V37.0002C41.2923 35.6064 40.1624 34.4766 38.7686 34.4766Z" fill="#FD0000"/>
<path d="M23.9441 40.9122H22.7946V42.6298C22.8096 42.8299 22.7482 43.0282 22.6228 43.1848C22.5683 43.2459 22.5009 43.2942 22.4255 43.3261C22.3501 43.3581 22.2686 43.373 22.1868 43.3698C22.1028 43.375 22.0187 43.3611 21.9408 43.3291C21.863 43.297 21.7935 43.2477 21.7375 43.1848C21.6144 43.027 21.5533 42.8296 21.5658 42.6298V38.0053C21.5562 37.903 21.5677 37.7998 21.5995 37.7021C21.6313 37.6044 21.6828 37.5143 21.7507 37.4372C21.9188 37.3033 22.131 37.2373 22.3453 37.2522H23.9309C24.2915 37.2398 24.652 37.2799 25.0011 37.3711C25.2425 37.429 25.4653 37.5472 25.6485 37.7147C25.8284 37.874 25.9686 38.073 26.0581 38.296C26.1511 38.5452 26.196 38.8097 26.1903 39.0756C26.2096 39.337 26.1685 39.5994 26.0699 39.8423C25.9714 40.0852 25.8181 40.3021 25.6221 40.4761C25.1323 40.8162 24.5375 40.9707 23.9441 40.9122ZM23.6402 38.1242H22.7946V39.9741H23.627C23.8716 39.979 24.1159 39.9524 24.3537 39.8948C24.5323 39.8447 24.6899 39.738 24.8029 39.5909C24.9055 39.4294 24.9562 39.2403 24.9483 39.0492C24.954 38.9308 24.9358 38.8125 24.895 38.7013C24.8541 38.5901 24.7914 38.4882 24.7104 38.4017C24.3934 38.1978 24.0124 38.1178 23.6402 38.1771V38.1242Z" fill="white"/>
<path d="M27.9995 37.2507H29.5983C29.9586 37.2442 30.3183 37.2842 30.6685 37.3696C30.9712 37.4508 31.2513 37.5999 31.4877 37.8056C31.8162 38.1231 32.0706 38.5091 32.2328 38.9362C32.3949 39.3633 32.4609 39.8209 32.4258 40.2764C32.4303 40.6091 32.3993 40.9413 32.3333 41.2674C32.2747 41.5526 32.1768 41.8282 32.0427 42.0866C31.906 42.3281 31.7321 42.5466 31.5274 42.734C31.3714 42.877 31.1928 42.993 30.9988 43.0776C30.8034 43.1729 30.5936 43.2354 30.3778 43.2626C30.1273 43.2845 29.8753 43.2845 29.6247 43.2626H28.0788C27.9009 43.2707 27.7238 43.2344 27.5635 43.1569C27.5096 43.1262 27.4629 43.0844 27.4264 43.0343C27.39 42.9842 27.3646 42.9269 27.3521 42.8662C27.328 42.7085 27.328 42.5481 27.3521 42.3905V38.0038C27.3415 37.9024 27.3512 37.8 27.3807 37.7024C27.4102 37.6049 27.4589 37.5142 27.5238 37.4356C27.6582 37.3241 27.8251 37.2592 27.9995 37.2507ZM28.4752 38.2284V42.3509H29.4001H29.889C30.011 42.3411 30.131 42.3144 30.2457 42.2716C30.3624 42.2311 30.4701 42.1683 30.5628 42.0866C30.7907 41.8502 30.9643 41.567 31.0715 41.2566C31.1788 40.9463 31.2171 40.6163 31.1838 40.2896C31.2073 39.8326 31.1117 39.3773 30.9063 38.9684C30.7659 38.7022 30.5299 38.4992 30.2457 38.4002C29.9316 38.3142 29.6067 38.2741 29.2812 38.2813L28.4752 38.2284Z" fill="white"/>
<path d="M37.1297 38.2685H34.6854V39.8276H36.7069C36.8574 39.8168 37.007 39.8588 37.1297 39.9465C37.1779 39.9895 37.2159 40.0426 37.241 40.102C37.2661 40.1614 37.2778 40.2256 37.2751 40.2901C37.2758 40.3523 37.2633 40.414 37.2382 40.471C37.2131 40.528 37.1761 40.5789 37.1297 40.6204C37.007 40.7081 36.8574 40.7501 36.7069 40.7393H34.6854V42.7477C34.6949 42.8469 34.6846 42.9471 34.6551 43.0424C34.6257 43.1376 34.5775 43.2261 34.5136 43.3026C34.4591 43.3637 34.3917 43.412 34.3163 43.444C34.2409 43.4759 34.1594 43.4908 34.0776 43.4876C33.9936 43.4929 33.9095 43.4789 33.8316 43.4469C33.7538 43.4148 33.6843 43.3655 33.6283 43.3026C33.5644 43.2261 33.5163 43.1376 33.4868 43.0424C33.4573 42.9471 33.447 42.8469 33.4566 42.7477V38.0042C33.4508 37.8591 33.4779 37.7146 33.5359 37.5814C33.5591 37.5251 33.5932 37.4739 33.6363 37.4309C33.6794 37.3878 33.7306 37.3536 33.7869 37.3304C33.9201 37.2725 34.0646 37.2454 34.2097 37.2511H37.1033C37.2597 37.2421 37.4143 37.2889 37.5393 37.3832C37.589 37.4249 37.6281 37.4778 37.6534 37.5375C37.6787 37.5972 37.6894 37.6621 37.6847 37.7268C37.6905 37.7916 37.6803 37.8568 37.655 37.9167C37.6296 37.9766 37.5899 38.0294 37.5393 38.0703C37.4345 38.1881 37.2872 38.2594 37.1297 38.2685Z" fill="white"/>
<defs>
<linearGradient id="paint0_linear_2202_11458" x1="18.8301" y1="-0.287" x2="18.8301" y2="46.381" gradientUnits="userSpaceOnUse">
<stop stop-color="#F1F5F9"/>
<stop offset="1" stop-color="#D8E5F4"/>
</linearGradient>
</defs>
</svg>
